<?xml version="1.0" encoding="utf-8"?>
<!-- Generator: Adobe Illustrator 26.2.1, SVG Export Plug-In . SVG Version: 6.00 Build 0)  -->
<svg version="1.1" id="Capa_1" xmlns="http://www.w3.org/2000/svg" xmlns:xlink="http://www.w3.org/1999/xlink" x="0px" y="0px"
	 viewBox="0 0 317.98 59.39" style="enable-background:new 0 0 317.98 59.39;" xml:space="preserve">
<style type="text/css">
	.st0{fill:#FFFFFF;}
	.st1{fill:#F4BB30;}
</style>
<g>
	<g>
		<path class="st0" d="M48.61,13.17c-5.21,0-7.81,1.56-7.81,4.69v-3.9H29.09V56.9H40.8V32.69c0-5.21,2.6-7.81,7.81-7.81
			c5.21,0,7.81,2.6,7.81,7.81V56.9h11.71V32.69C68.14,19.67,61.63,13.17,48.61,13.17z"/>
		<path class="st0" d="M93.76,24.02c5.21,0,7.81,1.41,7.81,4.22h11.71c0-10.54-6.51-15.81-19.52-15.81
			c-13.02,0-19.52,4.71-19.52,14.13c0,6.9,4.55,11.19,13.67,12.87c9.11,1.68,13.67,2.79,13.67,3.34c0,1.69-2.6,2.54-7.81,2.54
			c-5.21,0-7.81-1.41-7.81-4.22H74.24c0,10.54,6.51,15.81,19.52,15.81c13.02,0,19.52-4.71,19.52-14.14c0-6.9-4.56-11.19-13.67-12.87
			c-9.11-1.68-13.67-2.79-13.67-3.34C85.96,24.87,88.56,24.02,93.76,24.02z"/>
		<path class="st0" d="M135.01,1.87H123.3v11.71h-3.9V25.3h3.9v11.71c0,13.02,6.51,19.52,19.52,19.52h3.9V44.82h-3.9
			c-5.21,0-7.81-2.6-7.81-7.81V25.3h11.71V13.58h-11.71V1.87z"/>
		<path class="st0" d="M180.17,17.7c0-3.12-2.6-4.69-7.81-4.69c-13.02,0-19.52,6.51-19.52,19.52V38c0,13.02,6.51,19.52,19.52,19.52
			c5.21,0,7.81-1.56,7.81-4.69v3.9h11.71V13.79h-11.71V17.7z"/>
		<path class="st0" d="M217.41,2.23h-19.53V56.9h11.71V41.28h7.81c13.02,0,19.52-6.51,19.52-19.52
			C236.93,8.74,230.43,2.23,217.41,2.23z M217.41,29.57h-7.81V13.95h7.81c5.21,0,7.81,2.6,7.81,7.81
			C225.22,26.96,222.62,29.57,217.41,29.57z"/>
		<path class="st0" d="M262.39,13.14c-13.02,0-19.52,6.51-19.52,19.52v5.47c0,12.5,6.51,18.74,19.52,18.74h15.62V45.16h-15.62
			c-3.88,0-6.31-1.3-7.3-3.9h26.82v-8.59C281.92,19.65,275.41,13.14,262.39,13.14z M254.98,29.54c0.91-3.12,3.38-4.69,7.42-4.69
			c4.04,0,6.51,1.56,7.42,4.69H254.98z"/>
		<path class="st0" d="M315.63,25.64V13.93h-11.71V2.21H292.2v11.71h-3.91v11.71h3.91v11.71c0,13.02,6.51,19.52,19.52,19.52h3.91
			V45.16h-3.91c-5.21,0-7.81-2.6-7.81-7.81V25.64H315.63z"/>
		<path class="st0" d="M19.38,45.19V13.9c2.82-0.43,4.99-2.86,4.99-5.81c0-3.25-2.63-5.88-5.88-5.88c-2.2,0-4.11,1.21-5.12,3
			c-1.01-1.79-2.92-3-5.12-3c-3.25,0-5.88,2.63-5.88,5.88c0,3.05,2.33,5.56,5.31,5.85v31.24c-2.9,0.36-5.15,2.83-5.15,5.83
			c0,3.25,2.63,5.88,5.88,5.88c2.2,0,4.11-1.21,5.12-3c1.01,1.79,2.92,3,5.12,3c3.25,0,5.88-2.63,5.88-5.88
			C24.53,48.02,22.28,45.55,19.38,45.19z"/>
	</g>
	<g>
		<path class="st1" d="M173.1,45.97c0,0-1.47,2.24-3.75,2.36c-2.86,0.15-4.83-1.92-5.01-4.26c-0.18-2.31,1.38-4.41,2.65-5.83
			c1.72-1.93,4.34-3.91,5.88-4.82c1.57,0.91,4.26,2.86,6.05,4.78c1.32,1.41,2.96,3.5,2.87,5.81c-0.1,2.34-1.99,4.42-4.85,4.29
			C174.65,48.2,173.1,45.97,173.1,45.97z"/>
		<g>
			<path class="st1" d="M165.27,30.53c1.59,2.16,1.75,4.74,0.36,5.76c-1.39,1.02-3.81,0.11-5.39-2.05
				c-1.59-2.16-1.75-4.74-0.36-5.76C161.27,27.46,163.68,28.37,165.27,30.53z"/>
			<path class="st1" d="M180.02,30.5c-1.56,2.18-1.69,4.76-0.29,5.76c1.4,1.01,3.81,0.06,5.37-2.11c1.56-2.18,1.69-4.76,0.29-5.76
				C183.98,27.37,181.58,28.32,180.02,30.5z"/>
			<path class="st1" d="M171.79,25.62c0.51,2.78-0.53,5.3-2.32,5.63c-1.79,0.33-3.66-1.66-4.17-4.43c-0.51-2.78,0.53-5.3,2.32-5.63
				C169.41,20.86,171.28,22.84,171.79,25.62z"/>
			<path class="st1" d="M173.55,24.21c-0.48,2.78,0.59,5.29,2.38,5.6c1.79,0.31,3.64-1.7,4.12-4.48c0.48-2.78-0.59-5.29-2.38-5.6
				C175.88,19.42,174.03,21.42,173.55,24.21z"/>
		</g>
	</g>
</g>
</svg>
